<?xml version="1.0" standalone="no"?>
<!DOCTYPE svg PUBLIC "-//W3C//DTD SVG 20010904//EN"
 "http://www.w3.org/TR/2001/REC-SVG-20010904/DTD/svg10.dtd">
<svg version="1.0" xmlns="http://www.w3.org/2000/svg"
 width="42.000000pt" height="45.000000pt" viewBox="0 0 42.000000 45.000000"
 preserveAspectRatio="xMidYMid meet">

<g transform="translate(0.000000,45.000000) scale(0.100000,-0.100000)"
fill="#000000" stroke="none">
<path d="M70 425 c0 -20 -5 -25 -25 -25 -14 0 -29 -8 -35 -19 -6 -11 -10 -90
-10 -185 0 -210 -16 -196 216 -196 153 0 173 2 187 18 14 16 17 44 17 181 0
93 -4 171 -10 182 -6 11 -21 19 -35 19 -20 0 -25 5 -25 25 0 18 -5 25 -20 25
-15 0 -20 -7 -20 -25 l0 -25 -100 0 -100 0 0 25 c0 18 -5 25 -20 25 -15 0 -20
-7 -20 -25z m308 -257 l3 -128 -171 0 -170 0 0 123 c0 68 3 127 7 131 4 3 79
5 167 4 l161 -3 3 -127z"/>
<path d="M210 145 l0 -55 55 0 55 0 0 55 0 55 -55 0 -55 0 0 -55z"/>
</g>
</svg>
