<?xml version="1.0" standalone="no"?>
<!DOCTYPE svg PUBLIC "-//W3C//DTD SVG 20010904//EN"
 "http://www.w3.org/TR/2001/REC-SVG-20010904/DTD/svg10.dtd">
<svg version="1.0" xmlns="http://www.w3.org/2000/svg"
 width="33.000000pt" height="45.000000pt" viewBox="0 0 33.000000 45.000000"
 preserveAspectRatio="xMidYMid meet">

<g transform="translate(0.000000,45.000000) scale(0.100000,-0.100000)"
fill="#000000" stroke="none">
<path d="M17 432 c-15 -16 -17 -45 -17 -199 0 -238 -7 -228 163 -228 90 0 128
4 140 14 15 12 17 39 17 212 0 186 -1 199 -19 209 -11 5 -76 10 -144 10 -107
0 -126 -2 -140 -18z m263 -82 l0 -60 -120 0 -120 0 0 60 0 60 120 0 120 0 0
-60z m-2 -202 l-3 -103 -104 -3 c-67 -2 -108 1 -117 9 -10 8 -14 37 -14 105
l0 94 120 0 121 0 -3 -102z"/>
</g>
</svg>
