<?xml version="1.0" standalone="no"?>
<!DOCTYPE svg PUBLIC "-//W3C//DTD SVG 20010904//EN"
 "http://www.w3.org/TR/2001/REC-SVG-20010904/DTD/svg10.dtd">
<svg version="1.0" xmlns="http://www.w3.org/2000/svg"
 width="38.000000pt" height="36.000000pt" viewBox="0 0 38.000000 36.000000"
 preserveAspectRatio="xMidYMid meet">

<g transform="translate(0.000000,36.000000) scale(0.100000,-0.100000)"
fill="#000000" stroke="none">
<path d="M160 353 c-83 -30 -78 -142 7 -167 12 -4 37 0 56 8 71 29 68 130 -4
155 -35 12 -37 12 -59 4z"/>
<path d="M88 118 c-52 -14 -88 -50 -88 -88 l0 -30 185 0 185 0 0 33 c0 21 -8
41 -19 51 -44 40 -176 57 -263 34z"/>
</g>
</svg>
