<?xml version="1.0" standalone="no"?>
<!DOCTYPE svg PUBLIC "-//W3C//DTD SVG 20010904//EN"
 "http://www.w3.org/TR/2001/REC-SVG-20010904/DTD/svg10.dtd">
<svg version="1.0" xmlns="http://www.w3.org/2000/svg"
 width="42.000000pt" height="45.000000pt" viewBox="0 0 42.000000 45.000000"
 preserveAspectRatio="xMidYMid meet">

<g transform="translate(0.000000,45.000000) scale(0.100000,-0.100000)"
fill="#000000" stroke="none">
<path d="M2 356 c3 -83 6 -97 27 -120 13 -14 33 -26 45 -28 20 -3 21 -10 24
-105 2 -95 4 -103 22 -103 19 0 20 7 20 105 0 99 1 105 20 105 12 0 32 11 45
25 23 22 25 32 25 120 0 88 -1 95 -20 95 -18 0 -20 -7 -20 -80 0 -79 0 -80
-25 -80 -25 0 -25 1 -25 80 0 73 -2 80 -20 80 -18 0 -20 -7 -20 -80 l0 -80
-30 0 -30 0 0 80 c0 75 -1 80 -21 80 -20 0 -21 -4 -17 -94z"/>
<path d="M310 225 c0 -218 1 -225 20 -225 19 0 20 7 20 135 l0 135 35 0 35 0
0 90 0 90 -55 0 -55 0 0 -225z"/>
</g>
</svg>
