<svg xmlns="http://www.w3.org/2000/svg" viewBox="0 0 1080 1080"><path d="M520.4 553.6V812H262V553.6h258.4zm291.6 0V812H553.6V553.6H812zm-80.3 64.1h-97.8v24.4h35v105.7h29.6V642h33.2v-24.3zm-337.9 0h-38.1v130.1h31.2v-45h3.4c40 0 52-26 52-41.7 0-27.7-20.7-43.4-48.5-43.4zm-3.5 24.3C406 642 413 652.5 413 663c0 12.1-7 19-22.6 19H387V642h3.4zm130.1-380v258.4H262V262h258.4zm291.6 0v258.4H553.6V262H812zm-420.8 48.9a80 80 0 00-80.3 80.3 81.2 81.2 0 0080.3 80.3 80.1 80.1 0 0080.3-80.3 79 79 0 00-80.3-80.3zm291.6 0a79 79 0 00-80.3 80.3 80 80 0 0080.3 80.3 81.2 81.2 0 0080.3-80.3 80.1 80.1 0 00-80.3-80.3z" fill="#000" fill-rule="evenodd"/></svg>