<svg xmlns="http://www.w3.org/2000/svg" viewBox="0 0 1080 1080"><path d="M406 266c25 0 20 20 26 37v1c-12 3-23 2-26 1h-1c-11 36 5 34 5 57s-7 15-7 39 9 30 9 41c0 10-5 17-5 34 0 16 11 34 11 44s-10 17-10 40 7 18 7 26c18 2 6 25 6 43 0 20 21 34 21 47 0 14-10 27-10 46 0 18 10 39 14 49l-1-1c-11-4-16-7-33 0v-6l-2-21c0-8 7-11 7-21s-8-18-7-34c2-16 10-24 10-33s-10-11-10-27 5-34 5-42h-3c-15 0-11 13-11 23v1c0 10 3 14 3 26 0 11-15 36-15 48 0 13 13 31 13 48-1 16-20 26-19 41v3c1 13 2 21-8 37-11 17-22 12-25 6-6-15 9-17 9-37 0-19-14-18-14-50 0-19 17-33 17-51s-21-41-21-62 14-26 22-63v-1c8-39 22-62 22-76s-22-25-22 9v6c0 31 1 56-19 70h-1c-26 17-23 40-37 40-15 0-16-50 8-70l1-1c22-19 28-27 28-45 0-19-11-28-11-53 0-16 19-31 38-42l6-4c12-8 13-9 13-18 0-12-8-10-16-10h-1c-9 0-29 8-32-11-2-10 15-17 28-29 12-13 11-55 38-55zm40 505c7 2 16 2 24 1v3c0 14 12 23 16 37 4 15-20 16-30 0-12-19-6-32-10-41zm185-3c-2 15 6 17-8 32l-5 7c-11 12-16 16-22 6-7-10 2-14 9-25 3-5 4-10 4-15l15-3 7-2zm25-513c25 0 32 18 32 29 0 21-12 37-12 50s8 25 25 29l2 1c17 5 43 14 43 46 0 33-14 45-14 71s17 35 38 62c20 28 16 56 6 56-11 0-17-23-36-33l-1-1c-19-10-27-32-25-68v-2c2-36 5-61-13-61s-11 41-3 63v1c11 26 3 46 7 55 3 9 25 27 25 47 0 29-16 41-16 59 0 25 20 36 20 50 0 15-20 47-20 57 0 11 7 20 13 29s10 28-19 11c-15-9-11-21-11-35 0-33-21-41-21-62 0-20 9-28 9-41 0-26-19-31-19-56 0-18 8-48-6-48l-9 2-1-10c0-15 12-30 12-43 0-14-9-14-9-30 0-15 10-18 10-38s-8-17-8-31 8-17 8-34c0-18-10-21-10-29v-1c0-8-1-11 6-22 8-11 3-26 3-26h-1l-26-2-12 2-1-19c0-9 9-28 34-28zm-45 186c11 0 8 30 1 53h-1c-7 22 3 27-1 46-5 20-23 32-23 62 0 29 16 42 16 61s-14 26-14 53c0 22 18 40 20 57-15 0-26-9-33-9-9-2-18 2-18 2 1-3 8-14 8-30 0-18-12-21-12-38 0-16 12-26 12-36 0-11-12-17-12-29s9-15 9-31c0-6-2-12-4-18l10-7 1-1c16-13 33-22 34-47 1-22-7-44-7-55v-1c0-12 4-32 14-32zm-169 20c9 0 14 6 15 42v2c0 37 12 50 30 59 10 6 17 15 23 22v1c-2 6-4 11-4 19 0 15 11 16 11 34s-14 29-14 47 10 23 10 35c0 11-7 13-7 23v1l5 25h-23c-5-1-11 0-18 1 2-14 12-31 12-50 0-22-15-30-15-50s14-26 14-55c0-15-5-35-11-43-12-14-12-31-23-48l-1-1c-7-9-16-31-16-41v-1c0-11 2-22 12-22zm209 105c2 17 8 18 8 27 0 10-7 24-7 38 0 15 10 23 10 39s-10 25-10 40c0 14 16 48 7 56h-1c-4 0-16 0-27 2v-3c3-17 10-24 11-47l1-3c0-15 0-23-6-32l-1-2c-5-9-7-14 5-36l1-1c13-24 7-36 4-52-2-11-1-21 5-26zM432 304c14-4 23-5 36 0h1c24 8 36-3 36-3l-1 3-1 23c0 10 9 20 9 34s-8 14-8 27c0 12 9 18 9 33s-9 22-9 38 11 27 11 44c0 16-11 20-12 31 5 3 10 6 13 10 15 16 18 52 6 52-4 0-7-4-12-10v-1l2-12c0-13-9-25-9-37v-2l-1-1c-15-9-31-18-31-38 0-33 11-38 11-59v-1c-1-19-4-25-22-35-18-11-37-14-37-26 0-11 14-11 22-11h2c10-1 26-3 26-13s-29-20-39-43l-2-3zm123 238l-1 3-2 15c0 9 4 17 7 24l-1 1c-12 7-20 8-21-12 0-9 7-19 18-31zm68-240c3 25 12 15 12 28 0 29-12 27-42 42s-28 48-16 94l1 2c12 48 5 46-13 64l-10 10 1-2c1-5 3-12 3-22 0-7-7-9-7-36s8-23 8-40c0-16-11-24-11-44 0-19 13-21 9-32-10-23-7-59-7-59 8 0 26 5 43 5 11 0 20-6 29-10z" fill="#000" fill-rule="nonzero"/></svg>