<svg xmlns="http://www.w3.org/2000/svg" viewBox="0 0 1080 1080"><path d="M542.8 341.3L914 694.8H164l378.8-353.5zM401 587l-45.6 67.3-.2.3a15 15 0 0012.3 23h12.9a25 25 0 0020.4-11.2l.2-.4 40.7-63.6-9.6-2.9-39.5 61.1-.2.3a15 15 0 01-12 6.7H367.7a5 5 0 01-4-7.6v-.2l45.9-69.3-8.6-3.5zm49.7 31.6l-.1.3-4 9.2-.2.4-.1.3a12 12 0 007 15.2l.3.2 19.6 7h.2c.3.2.6.6.5 1v.2l-1.8 6.8v.3c-1.4 4.7-5.6 8-10.5 8h-35.3v10h35.4c9.3-.1 17.5-6.4 20-15.4l.1-.4 1.8-6.8v-.3a11 11 0 00-6.7-12.7l-.3-.1-19.7-7-.1-.1a2 2 0 01-1.1-2.4v-.2l4-9.2.1-.3a8 8 0 018.2-4.5h.3l27 4 1.5-9.8-27-4-.4-.1a18 18 0 00-18.7 10.4zm104.3-3.9H522a15 15 0 00-14.2 11.4v.3l-.5 2v.2a15 15 0 009.6 17.1l.3.2 19.4 6.5h.2a5 5 0 013.2 5.1v.3l-.6 3.7v.2a7 7 0 01-6.7 5.9h-32v10h32.1a17 17 0 0016.5-14.4v-.4l.6-3.7v-.3a15 15 0 00-9.8-15.8l-.3-.1-19.4-6.5-.2-.1a5 5 0 01-3.2-5.5v-.3l.5-1.9v-.2a5 5 0 014.7-3.7H555v-10zm104.3-19.4h-.5l-9 1.5h-.3a16 16 0 00-10 25.3l.2.4 29.5 37.4.3.4a40 40 0 0030.5 16.3h10.4c8.6 0 16-6.5 16.3-15.1.1-4.1-2.3-8-5-11.1l-7.4-7.8-11.8 2.6 10.8 12c1 1.1 1.5 2.5 1.4 4 0 3.1-3 5.3-6.1 5.3h-.3l-7.5.1h-.5a30 30 0 01-23-12.5l-.3-.4-29.4-37.4-.2-.2a6 6 0 013.7-9.4h.3l9-1.4h.3A15 15 0 01673 609l.3.3 7 7 10.2-2.8-10.3-11.4-.3-.3a25 25 0 00-20.4-6.5zm-53.6 13.3l-20.4 3.5-13.9 64.3 10.8.1 4-21.2 33.4-.8 12 21.3 13.7-.1-39.6-67.1zm104.9-38.2l-.4.2-8.8 4a15 15 0 00-5 23.7l.3.4 61.5 63.5a45 45 0 0031.7 13.7h10.4a16 16 0 0011.5-27l-.3-.4-73.5-72.8a25 25 0 00-27.4-5.3zm-358-9.7L235.2 675.6h52.5a35 35 0 0024.9-10.4l.4-.4 26.8-28a15 15 0 003-16.4l-.2-.4-.6-1.1 6-1.3c5.1-1 9.8-3.6 13.3-7.4l.3-.4 13-14.5c3.6-4 4.8-9.6 3-14.6a20 20 0 00-8.6-10.8l-.4-.2-15.9-9zm378 21.8l.3.3 73.6 72.8a6 6 0 01-4 10.3h-10a35 35 0 01-24.8-10.3l-.3-.4-61.5-63.5a5 5 0 011.3-8h.2l8.9-4a15 15 0 0116.4 2.8zm-416.6 30.9l17 5.8 2.4 5a5 5 0 01-.6 5.3l-.1.2-.2.2-26.9 28-.3.3a25 25 0 01-16.8 7.4h-28.9l54.4-52.2zm287.2 6.4l13.5 24.8-26.3.6 5.3-24.4 7.5-1zm-247-46.7l9.3 5.3.3.2a10 10 0 014.3 5.3c.5 1.5.2 3.1-.7 4.3l-.1.2-.2.2-13 14.6-.3.3a15 15 0 01-7.9 4.4l-11 2.2-13.4-5.1 32.7-32zm301.9 3H539.9l.5 20.3h8.6v-5a10 10 0 1120 0v3.9l7-.7v-4.2a10 10 0 1120 0v1.5l6-1v-.5a10 10 0 0119.3-3.7c3.4-.8 6.9-1.7 10.3-2.7a10 10 0 0112.5-3.8l12-4.1zm-121.3 0h-37.7v17.5l9.8 1.1v-3.3a10 10 0 1120 0v4.8l8.4.2-.5-20.4zm-20.5-191.7l-124 116h13l17.7-17.7 15.8 17.6h15v-7.7h5v8.8l30 15.7-.8 1.5-2.9 9.3v63.5l9 1.5v-80.7l9.3-11.3v-70l13-46.5zM457 539.1v46.6l4.4 1.1V571a2.1 2.1 0 012.8-2h.1a4 4 0 012.7 3.8v15.4l3.4.7v-14.5a2 2 0 012.8-1.7 5 5 0 012.8 4.4v13l3.3.6v-40.5L457 539.1zm-36-50.6l-15.8 15.8h-17.5v55l5.9 3V511h13v4h-9v15.5a60 60 0 015.6-2l-.1-.7c0-1.8 1.3-3.3 3-3.3a3 3 0 013 2.5l4-.7c0-2.1 1.3-3.8 3-3.8 1.5 0 2.7 1.4 3 3.1l4-.2v-.1c0-2.1 1.3-3.8 3-3.8s3 1.7 3 3.8v.2c1.9 0 3.6 0 5.2.2a3 3 0 012.8-2.2c1.5 0 2.8 1.3 3 2.9l3.5.8v-11.2h-8.7v-4h12.7v71l4.4 1.3v-47.8h-.2l.2-.4v-9.6h-.2l.2-.4v-9.6h-.2l.2-.4v-11.9h-16.8L421 488.5zm10.7 61.5c-5.6 0-10 1-13.3 2.7l-.3.2v20.2l7 2.6v-13.3a5 5 0 015-5h2a5 5 0 015 5v17.5l6.5 2v-29.2c-2.2-1.7-6.1-2.7-11.9-2.7zm241.7-68.3l-13 25.2v67.6a334.3 334.3 0 0041.8-19.3v-45.8l-28.8-27.7zM534.8 569h-37.6v3h37.7l-.1-3zm121.6 0H539.8v3h116.6v-3zm-228.7-28.2H424c-8.4.3-14.2 1.2-17.3 2.7l-.2.1v24.7l7.4 3.2v-20.7l.9-.6c4-2.8 9.6-4.2 16.7-4.2 5 0 9 .7 11.9 2v-5.3l-.2-.1c-.5-.3-1.4-.6-2.7-.9-2.4-.5-6-.8-10.6-.9h-2.3zm-2.7-10.3a64.7 64.7 0 00-27.5 5.5v28.2l5.1 2.3v-25l.9-.6c3.7-2.7 11.3-4 22.9-4H431.1c5.6 0 9.7.5 12.4 1.4v-5.6c-2-1.2-7.2-2-15.3-2.2H425zM656.4 547h-7.9v18h7.9v-18zm-85.9 0h-7v18h7v-18zm9 0h-6v18h6v-18zm9 0h-6v18h6v-18zm11 0h-8v18h8v-18zm9 0h-6v18h6v-18zm-56 0h-5v18h5v-18zm-18.2-3h-37.1v21h9.8v-1.6a10 10 0 1120 0v1.6h7.7l-.4-21zm111.2 3h-6v18h6v-18zm-85 0h-5v18h5v-18zm76 0h-7v18h7v-18zm-10 0h-5v18h5v-18zm-82 0h-5.2l.4 18h4.8v-18zm74 0h-7v18h7v-18zm-148.2 3.3l5.6 2.7v8.4l-5.6-2v-9.1zm-9-3.3l5.6 2v9.4l-5.6-2V547zm-78 10h-.1.2zm.3-50.3l-6 5.6V553h6v-46.2zm322.5 6.5v39.7c8.5-4.8 16.9-10 25-15.6l-25-24.1zm-332.5 2.9l-6 5.6V548l.2.1h5.8v-32.1zm83.3 13v5.5l22.3 11.1v-5.5L457 529.1zm199.5 11H539.2v3h117.2v-3zm-292.8-14.7l-12.7 11.9 3.6 2.4 2.7 1.8h6.4v-16zm170-10.4h-36.4v25h37l-.5-25zm122.8 0H538.7l.4 21H550V530a8.5 8.5 0 1117 0v6.1h10V530a8.5 8.5 0 1117 0v6.1h10V530a8.5 8.5 0 1117 0v6.1h9V530a8.5 8.5 0 1117 0v6.1h9.4v-21zm-199.5 4.1v5.5l22.3 11.1v-5.5L457 519.1zm56.1 3.5v11.6h-8v-11.6h8zm14 0v11.6h-8v-11.6h8zm-111 3h-.2l.2.4.2-.4h-.2zm41-19.7v8.7l22.6 11.3 2.2-7-24.9-13zm-31 19.5v.1-.1zm0-.8h-.2l.2.8c0-.4 0-.6.2-.8h-.2zm251-12v10.6h-8v-10.6h8zm17 0v10.6h-8v-10.6h8zm-37.6-6.6h-96.8l-2.7 5h99.5v-5zM519.2 386l-12.7 45.7v63.2l10-12.2 22 28.2v.1h11.7l18.4-35.1h-36.1v-44.2L519.2 386zm-2.7 104.6L499.6 511h8.6v-2.2a7.8 7.8 0 0115.6 0v2.2h8.5l-15.8-20.4zm-96 8.8c2.5 0 4.5 1.5 4.5 3.5 0 1.9-2 3.5-4.5 3.5s-4.5-1.6-4.5-3.5c0-2 2-3.5 4.5-3.5zm246.8-23.5L654.7 500h4.7l10.9-21.2-3-3zm-86.6 0h-6.3l.8.4-12.5 23.7h5.5l12.5-24.1zm9 0h-4.4L572.7 500h4.5l12.5-24.1zm18 0h-4.4L590.7 500h4.5l12.5-24.1zm36 0h-4.4L626.7 500h4.5l12.5-24.1zm9 0h-4.4L635.7 500h4.5l12.5-24.1zm10 0h-5.4L644.7 500h5.5l12.5-24.1zm-28 0h-4.4L617.7 500h4.5l12.5-24.1zm-9 0h-4.4L608.7 500h4.5l12.5-24.1zm-9 0h-4.4L599.7 500h4.5l12.5-24.1zm-18 0h-4.4L581.7 500h4.5l12.5-24.1zm-43.7 7.7v9.6h-7v-9.6h7zm-13 0v9.6h-7v-9.6h7zm-16-11.2v5h-13v-5h13zm48.1-29.3c-5.7 0-7.7 4.3-6.6 10.2.1 1 .4 1.7.8 2.8l.2.7.5 1.4a14 14 0 011 6.7v.4l-.3 1.7h-32.2v3.9h124.6l-4-3.9h-79v-2.8c0-.8 0-1.5.3-2.8v-.4l.2-.9 1-4 .1-1v-.4l.2-.8.2-.7c1-6.6-.7-10.1-7-10.1zM526 458.4v9h-13v-9h13zm128 4.6L543.6 357.1l-21.8 20.3 15.6 53.6v32h28.6c0-1-.3-2-.7-3.1l-.2-.5-.6-1.6a22 22 0 01-1-3.8c-1.5-8 1.7-14.9 10.5-14.9 9.3 0 12.3 6 11 14.5l-.2.7c0 .3 0 .7-.2 1v.6l-.2.9-1 4v.9l-.1.2-.1.6-.1.5h70.7zm-80-15.6a3 3 0 110 6 3 3 0 010-6zm-48-1v7h-13v-7h13zm0-12v7h-13v-7h13zm-6.5-30l6.5 25.5h-13l6.5-25.5z" fill="#000" fill-rule="evenodd"/></svg>