<svg xmlns="http://www.w3.org/2000/svg" viewBox="0 0 1080 1080"><path d="M540.294 223.393L234.152 835.677s63.366-197.517 124.719-320.248C420.2 392.817 540.112 223.648 540.294 223.393zm0 0c.181.255 120.096 169.424 181.422 292.036 61.35 122.723 124.712 320.224 124.72 320.248zm0 575.25c152.234 0 306.041 37.01 306.143 37.034H234.152c.05-.013 153.875-37.033 306.142-37.033zm81.154-63.6c2.43 0 5.176.407 7.424 1.55l-1.767 4.572c-1.585-.935-3.536-1.514-5.657-1.514-3.169 0-3.97 1.81-3.97 3.026 0 1.873 1.899 2.678 3.452 3.37l1.961.894c3.523 1.531 6.595 3.43 6.595 7.806 0 6.467-5.076 8.858-10.662 8.858-3.219 0-5.882-.885-7.631-1.797l1.624-4.733c1.56.975 4.033 1.798 6.311 1.798 2.528 0 4.441-1.01 4.441-3.284 0-1.974-1.913-2.838-3.466-3.492l-2.01-.86c-3.62-1.557-6.458-3.478-6.458-7.966 0-4.7 3.834-8.228 9.813-8.228zm-146.297 0c3.368 0 5.841.707 7.768 1.57l-1.927 4.958c-1.804-.929-3.782-1.469-5.489-1.469-5.646 0-7.598 5.122-7.598 9.442 0 5.59 3.764 9.007 8.015 9.007 2.173 0 4.102-.687 5.437-1.476l1.605 4.657c-1.97.996-5.152 1.873-7.81 1.873-8.289 0-13.46-5.936-13.46-13.934 0-7.569 4.349-14.628 13.46-14.628zm117.815.752v4.873h-10.8v5.573h10.442v4.726h-10.442v7.104h11.392v4.875h-17.377v-27.15h16.785zm-78.74-.045l9.631 27.196h-6.415l-1.693-5.162h-10.042l-1.702 5.162h-5.9l9.589-27.196h6.532zm43.174.045v4.914H546.4v6.09h10.636v4.872h-10.636v11.275h-6.041v-27.15h17.04zm-46.62 5.404l-3.561 12.116h7.078l-3.516-12.116zm81.828-12.916l-5.061 4.72h-4.152l3.05-4.72h6.163zm93.72-119.699l45.343 90.893h-90.686l45.343-90.893zm-279.66 0c25.048 0 45.354 20.41 45.354 45.498 0 25.084-20.306 45.395-45.353 45.395h-34.757v-90.893zm157.084 0v72.038h30.258v18.855h-53.713v-90.893h23.455zm-39.649 0v18.853h-36.35v17.165h36.35v18.855h-36.35v17.165h36.35v18.855h-59.806v-90.893h59.806zm144.126 0l-9.402 18.853h-25.17v72.04h-23.46v-72.04h-29.988v-18.853h88.02zm18.1 40.997l-15.192 31.041h30.382l-15.19-31.041zm-283.877-22.144h-7.082v53.185h7.082c14.701 0 26.583-11.914 26.583-26.579 0-14.71-11.882-26.606-26.583-26.606zm300.558-31.729c4.568 0 8.31 3.746 8.31 8.31 0 4.59-3.742 8.348-8.31 8.348-4.612 0-8.355-3.758-8.355-8.348 0-4.564 3.743-8.31 8.355-8.31zm0 1.599c-3.73 0-6.763 2.978-6.763 6.71a6.763 6.763 0 006.763 6.772c3.71 0 6.741-3.02 6.741-6.771 0-3.733-3.03-6.711-6.741-6.711zm.088 2.29c.78 0 1.78.017 2.404.414.864.536 1.11 1.408 1.11 2.359 0 1.62-.874 2.272-2.438 2.36l2.156 3.854h-2.059l-1.978-3.853h-.964v3.853h-1.732v-8.988zm-.293 1.321h-1.476v2.515h1.819c1.026 0 1.687-.247 1.687-1.398 0-1.117-1.266-1.117-2.147-1.117z" fill="#000" fill-rule="evenodd"/></svg>