<svg xmlns="http://www.w3.org/2000/svg" viewBox="0 0 1080 1080"><path d="M567 458.3v166.07h-24V482.01h-34.3L369.21 624.37h-263.9l23.37-23.75h183.8c19.08-.3 34.45-15.69 34.45-34.61 0-19.12-15.68-34.61-35.03-34.61h-51.03a12.91 12.91 0 01-12.67-12.84c0-7.09 5.81-12.84 12.99-12.84H420.5l-23.35 23.72H357.9A57.66 57.66 0 01370.94 566a57.59 57.59 0 01-10.53 33.25L498.52 458.3H567zm-48 47.62v118.45h-24V564.3l-58.93 60.06h-33.42l116.2-118.45h.15zm399-47.63v166.08h-24V482h-34.3L720.21 624.37H683V505.92h88.32l-23.35 23.72H707v74.13l142.52-145.48H918zm-48 47.63v118.45h-24V564.3l-58.93 60.06h-33.42l116.2-118.45h.15zm-211 0v118.45h-24v-94.73h-45.5v-23.72H659zM467.2 458.3l-23.34 23.72H260.58c-20.14.32-36.37 16.56-36.37 36.55 0 20.19 16.56 36.55 36.99 36.55h51.01a10.96 10.96 0 0110.73 10.9c0 6.02-4.94 10.9-11.03 10.9H152.04l23.34-23.72h35.9a59.5 59.5 0 01-11.07-34.63c0-33.29 27.3-60.27 60.99-60.27h206zm351 0l-23.34 23.72H589.5v-23.72h228.7z" fill="#000" fill-rule="evenodd"/></svg>