<svg xmlns="http://www.w3.org/2000/svg" viewBox="0 0 1080 1080"><path d="M540 370c118 0 240 53 287 116h91v38h-19c0-6-5-11-11-11h-32v15h30v25h-30v14h32c6 0 11-5 11-11h19v38h-91c-47 63-169 116-287 116s-240-53-287-116h-49c-7 0-14-4-18-9-3 1-6 5-6 9h-18v-34h61c4 0 8-4 8-8 0-3-3-6-7-7h-36c-13 0-23-10-23-23v-14c0-12 10-22 23-22h65c47-63 169-116 287-116zm-4 252c-38 0-74 4-105 11a143 143 0 00105 50v-61zm8 0v61l13-1c37-4 69-22 92-49-31-7-67-11-105-11zm-122 13c-19 5-36 11-51 18 33 12 70 21 108 26-22-10-42-25-57-44zm236 0l-1 2c-15 18-35 32-56 42 38-5 75-14 108-26-15-7-32-13-51-18zm-354-91h-24v28c0 9-5 17-14 21 22 21 56 41 95 56h1c15-8 34-15 55-21-8-10-14-22-18-34h-65c-16 0-30-13-30-30v-20zm493 0h-52l10 26c3 5 11 6 18 6v18h-90v-5c-4 14-11 27-20 39 22 6 40 13 56 21 38-15 71-34 93-55h-31v-18c11 0 16-5 16-12v-20zm-283 0h-25v23c1 5 6 9 16 9v18h-55v-18c12 0 17-5 17-12v-20h-33v20c0 16-12 29-27 30 5 12 11 22 18 32 33-7 70-12 111-12v-39l-22-31zm127 0h-37v50h-54l-6-8v28c41 0 78 5 111 12 7-9 13-20 18-32h-61v-18c8 0 17-3 19-8l10-24zm42 12h-20l-3 9c-2 8 4 11 14 11v16c4-11 7-23 9-36zm13 0h-5l-4 19c9 0 13-4 12-11l-3-8zm-318-12h-23v13c0 6 5 11 11 11s11-5 12-11v-13zm205 0h-15l15 21v-21zm-158-90c-7 10-13 20-18 32 15 1 27 14 27 30v20h33v-20c0-7-5-12-17-12v-18h77l9 13v-33c-41 0-78-5-111-12zm64 54v28h19l-19-28zm166-54h-2c-32 7-69 12-109 12v44l19 26h20v-20c0-7-5-12-17-12v-18h55v18c-11 0-16 4-17 10v22h40l9-20c3-8-7-12-19-12v-18h39c-5-12-11-23-18-32zm-294-23l-2 1c-37 15-69 33-91 54h16v23h-35c-3 5-6 10-7 15h16c8 0 16 5 20 12h26v-20c0-17 14-30 30-30h65c4-12 10-24 18-34-22-6-40-13-56-21zm6 83h-1c-6 0-11 5-11 11v11h23v-11c0-6-5-11-11-11h-1 1zm352-83h-1c-15 8-34 15-55 21 8 10 14 22 18 34h71v18c-12 0-23 5-19 12l8 20h56v-20c0-7-5-12-16-12v-18h31c-22-21-55-40-93-55zm-39 87l-8 17h11v-9l-3-8zm-441-8h-16a7 7 0 00-2 14h13c1-5 2-10 5-14zm305-113v61c38 0 74-4 105-11a143 143 0 00-105-50zm-8 0h-2l-11 1c-37 4-69 22-92 49 31 7 67 11 105 11v-61zm-57 4h-1c-37 5-74 14-107 26 15 7 32 13 51 18 15-19 35-34 57-44zm122 0c22 10 42 25 57 44 19-5 36-11 51-18-33-12-70-21-108-26zm-65-4h4-4z" fill="#000" fill-rule="nonzero"/></svg>