<svg xmlns="http://www.w3.org/2000/svg" viewBox="0 0 1080 1080"><path d="M706.9 445.2c7.5 1.6 15 3.4 22.4 5.4l.6.2c9.7 2.8 12.8 6.6 13.3 20.7.6 15.3.8 30.6.8 46v16.7c.1 10 0 20-.7 30a44.4 44.4 0 01-18.3 33.5l-1.1.8c-6.5 4.7-13.3 8.8-21.6 8-4.4-.5-8.8-2.6-13.1-4.1l-.6-.2-4.9-2c-.7 2-1.6 3.6-1.7 5.2-.2 4-.2 8.1-.1 12.2 0 1.8.2 3.6.6 5.3l.3 1.4c1 4.8.7 5.1-4 8.4l-.3.2c-1.5 1-2.9 2.3-5.3 4.2 2.5.6 3.7 1.2 5 1.2l60.7-.3H787c16 0 31.8-.3 47.7-.4 14.9 0 29.8 0 44.6-.2 2.5 0 5-.6 8-1v5.2c-1 .3-1.4.5-2 .5-14.8.3-29.6.7-44.5.7-19.6.2-39.2 0-58.8 0-15.6.2-31.3.7-47 .7-20 0-40-.3-60-.4-3.1 0-6.3.2-9.5.6-1.3.2-2.4 1.3-3.4 2.8 35.9 1.6 71.6.6 107.2.3h3.7c36.9-.2 73.8-.8 111-1.1l.2 3.6c-1 .3-1.8.7-2.5.8-14 .4-28.2 1-42.2 1.2-20.7.3-41.4.4-62 .5h-33.1c-9.6 0-19.2.4-28.8.5h-43.1c-5.9.1-11.8.3-17.7.7-2.6.1-5.1.9-7.7 1.3v1.7c3 .2 6 .6 9 .6h19.2l12.8-.1 35.7-.2c18.6 0 37.2 0 55.8-.2l93.1-.7c1.7 0 3.4.3 5.2.5-.6 4.4-3.3 4.6-6.1 4.6l-33.5.3-58.8.6h-96.2c-12.1 0-24.3.5-36.4.6-5.5 0-11-.2-16.4-.3H627c-2.5 0-5.1.1-7.6 3.3 2 .7 3.5 1.7 5 1.7 20.3-.1 40.6-.4 61-.7l76.5-.8 72.7-.6c10.5 0 21-.3 31.5-.4 1.3 0 2.6.6 4 1-.8 4.1-3.6 4.5-6.5 4.6l-12.4.1-18.7.2h-84.7c-10 0-20.2 1-30.3 1-11 .2-22-.3-33-.3-14.6 0-29 .4-43.5.6h-4.8l-11.8.4h-.4c-2 .2-4.1.6-4 4 1 .2 2 .7 3 .7 21.5-.3 42.9-.7 64.3-.8 15.8-.1 31.6.3 47.3.2l98.1-.7c8.5 0 17-.2 25.4-.3.8 0 1.7.3 2.7.5.2 3.9-2.4 5.1-5 5.2-10.1.1-20.2-.2-30.3-.1-11 0-21.8.3-32.7.4h-10l-46.3.3-46.3.3-48.8.7c-9 .1-18 .3-26.9.6-1.5 0-3.3.5-4.6 1.4l-35.6 26.2c-2.4 1.7-5.3 3-9 5-.8-2.8-1.9-4.8-2-6.8l-.3-27V671l-.5-64.3c-.1-19.6-.4-39.2-.7-58.8 0-2.4-.5-4.8-.9-7.4l-43-17c-.4 3-.8 5-.8 7 0 5.5.2 11 .7 16.5.1 1.6.9 3.9 2 4.5 7.7 4.1 9.5 11.4 11 18.9l11.2 55 13 59.2 2.2 9.9c1.6 7.4 3.2 14.7 5 22 .7 2.7 0 4.5-2.1 6l-7.4 5.5-4.9 3.8c-.7.5-1.4 1-2 1.7l-.5.5c-4 4.7-5.7 4.7-11.7 1.6-2.2-1.1-4.5-2-6.8-2.7-6.3-1.7-11 1.2-12 7.5-.4 2.6-.6 5.2-.7 7.8v1c-.3 5-1.7 9-6.3 12l-.3.2c-6 3.8-11.3 8.7-17 13.1l-3 2.1-6.2-3.7c-.6 1.1-1.3 1.8-1.2 2.4.4 5.1-3 8-6.6 10.5-14.6 10.6-29.4 21-44 31.7-6 4.5-12.6 3.1-19 2.4-3-.3-5.9-1.2-8.7-2.2l-8.4-2.9c-6.8-2.3-13.7-4.7-20.4-7.4l-2.7-1a79.9 79.9 0 01-30.5-18.5c-4.9-5.1-8.1-11.2-8.8-18-1-10.5-1-21.2-1-31.8-.2-14.2 0-28.5-.2-42.7 0-2.8-.6-5.5-1-8.8-2.2-.2-4-.5-5.9-.5h-83.8l-39.3.1c-1.6 0-3.2-.6-4.8-.9-.2-3.2 1-4 3.3-4h.2c6.3 0 12.5.2 18.8.1l63.8-.5c14.2-.1 28.3 0 42.4-.2 1.9 0 3.7-1 5.6-1.5v-1.9c-1.5-.4-3-1-4.4-1l-29.2-.1h-78.8c-3.8 0-7.6.6-11.5.9l-3.3.1c.2-4.1 2.1-5.6 6.4-5.7h113.2c2.4-.2 4.8-.7 6.8-1 1.1-3 .1-4.2-2.2-4.2l-29.6.1h-8.4l-29.3.5H215c-1.3 0-2.6-.4-3.9-.6-.3-3.1 1.4-3.9 3.5-3.9l34.6-.3 28.4-.4 35.8-.4c4 0 8-.3 11.9-.6 1.2-.1 2.4-.9 3.6-1.3l.2-1.5c-1.4-.5-2.9-1.5-4.3-1.5-8.2 0-16.4.3-24.6.4h-23.4l-48.5.2-9.1-.3c1-3.7 2.9-4.7 5.5-4.7h.2l98.4-.4c1.4 0 2.8-.7 4.2-1.1v-1.7c-1.8-.3-3.6-1-5.3-.9-22.7.4-45.4 1-68.1 1.3-7.6.1-15.1 0-22.7-.2-1.8 0-3.6-.6-5.6-.9.8-3.8 3.4-4.3 6-4.3 6 0 12 .4 18 .3l48.4-.6 16.2-.3 8-.1c6-.1 7-1.3 7.5-7.3v-.3c.7-9.3 1-18.7 2.6-27.8 1-6 3.8-11.5 9.3-15.8a181 181 0 0135.5-20.2 34.7 34.7 0 0127-.9l.4.2c9.1 3 18.4 5.5 28.1 8.3.7-1.7 1.4-3 1.7-4.4 1.8-8.1 3.3-16.3 5.3-24.4.9-3.8 2.9-6.3 7.1-7.7h.4c7.5-2.4 14.6-6 22-8.8 1.3-.5 3-.9 4.3-.4 12 4.6 24 9.4 36 14.2h1.4c.2-1.2.8-2.5.7-3.8-.3-6.4-.5-12.9-1-19.3l-.3-1.8c-.4-4 1-6.6 4.4-8 4.3-1.6 8.8-2.8 13.1-4.4 2.8-1 5.4-2.4 8-3.7 3.6-1.8 6.8-1.6 10.6 0 8.8 3.8 17.8 7.1 27.5 10.9.6-1.7 1.4-3.1 1.5-4.6.3-2.2.5-4.5.4-6.8v-.9c-.5-11 7.2-16.7 15.5-20.8 10.6-5.3 21.8-9.6 33-13.4 4-1.4 8.9-.3 13.2.3 3.1.5 6 2.3 9 3.4 1.4.5 2.8.8 4.6 1.3.5-1.3 1-2.2 1.1-3.1.6-10 6.6-15.5 15.1-19 5.5-2.3 11.3-4.1 16.9-6.4l1.8-.8c6.8-2.9 13.8-3 20.8-1.6zM371.2 580c-7 4.2-13.4 9.2-20.5 13.2l-1.4.7c-6 3.2-9.1 8-10 14-1.4 9.8-2.6 19.6-3 29.4-.4 14.2 0 28.5 0 42.7v38c0 11.5-.2 23 .1 34.6l.1 1.6c.3 7.8 1.2 15.7 5.8 22.3 2.7 3.8 6.1 7.4 10 9.8 9.4 5.8 18.5 12.5 29.5 15.4 4.3 1.1 8.4 3.2 12.6 4.6 2.2.8 4.6 1 7.7 1.6l-.7-3.7-.2-1.1c-.4-1.8-1.1-3.5-1.2-5.2-.4-7-.8-14-.9-21.1l-.6-60.3v-12c-.2-22.3-.6-44.6 0-67 .4-13 5.1-24.3 19-29 1-.3 1.9-.8 2.8-1.3l17.3-7.6 8.6-4c1.4-.5 2.6-1.3 4.7-2.5-2-1.4-3-2.6-4.5-3.2a223.2 223.2 0 00-51.2-15.7c-9.1-1.7-16.7 1.3-24 5.8zm75.3 158.5l-11.3 1.4c-.3.6-1 1.4-1 2.2v5.3c-.2 7.2-.3 14.4 0 21.5 0 1.4 2 3.5 3.5 3.9 1.7.4 4.5 0 5.5-1.3 2-2.3 4.4-5.3 4.5-8.2.4-8-.2-16-.4-24 0-.2-.4-.3-.8-.8zm-.6-187.7c-1 2-2.4 3.8-2.8 5.7-1.4 5.9-2.4 11.9-3.6 17.8l-.6 2.5c-.7 3.6.6 5.3 3.6 6.7l.2.1c7 3.1 14 6.6 20.9 9.8 9.6 4.4 14 12.2 14.2 22.3.3 10.8.3 21.6 0 32.3 0 2.3-1.3 5.3-3 6.5-5.2 3.7-10.9 6.8-16.3 10l-6.8 4v1.4c8.2 5 16.8 9.4 27.7 11v11.6l-.5 39.2c-.1 10.1-.3 20.3-.1 30.4 0 3.5 2.2 5.5 6.8 6 .5-2.1 1.3-4.2 1.4-6.3 1.5-16.6 2.7-33.2 4-49.8 2-22.5 4-45 5.8-67.4 1.6-19.3 3-38.6 4.4-57.9l.7-9.6c.5-6.5-.3-7.3-6.7-9.4-7.3-2.3-14.4-5.2-21.6-7.7-9-3.1-18-6-27.7-9.2zm-9.8 152.9c-1 2.2-1.9 3.1-2 4.1a382 382 0 00.2 21.6c0 1.3 1.8 2.6 2.8 3.9l1.7-.8c.3-1.3 1-2.6 1-3.9 0-6.8-.1-13.6-.6-20.3 0-1.3-1.6-2.5-3-4.6zm91.8 24.6l7.7 3.4c2.8-3.8.6-6.4-.6-9.1-4-.4-6.4 1.4-7.1 5.7zm-92.6-57.7c-.8 1-1.2 1.3-1.2 1.7 0 7.7-.3 15.5.2 23.3.2 3.5 5.7 5.7 8.8 4 6.7-4 13.4-7.9 20-12 1.3-.8 2.2-2.3 3.8-4.1l-31.6-13zM528 692l-8.7-4-1.2 9.5 1.4.8 8.5-6.3zm-.3-8.8l-5.3-24.3-1.5.3c-.5 6.4-1.2 12.8-1.5 19.3-.1 4 3.1 6.2 8.3 4.7zm-86-39.3c-2.4.4-5.5 1.9-6.5 3.8l-.7 1.5c-1.4 3-2.8 6.7.6 9.4 3 2.5 7 3.8 11.5 6.1.3-6.8 1.7-12.4-.3-17.7-.5-1.5-3.3-3.4-4.6-3.1zm155.6-10.5c-5.2 3.6-6.4 15.5-3 23.5 5.5 1.8 19.2-6.4 20.8-12.5l-17.8-11zm22 21.7c4.1 2.5 16.2 2.3 18.7.1a32 32 0 00-18.7-.1zm-6.3-19.8c2 4.7 5.8 5 8.2 1l-8.2-1zm-13.2-11.4h-2.5c-2.2.1-4 1-3.3 5l1.6.2c8.6 1.1 17.1 2 25.7.3.7-3.9-1-5.6-4-5.6-5.8-.1-11.6 0-17.5.1zm49.4-23.1v19.4c3.7 2 6.9 1 8-3 1.4-5 1.4-10.2-.1-15.6l-7.9-.8zM597 612.2c-1 0-2 .5-3.4 1l.6 6c9.5-1 18.4 1.4 27-1.7v-.5c.4-3-.3-4.7-3-4.8H597zm18.4-11.7h-5l-12.3.3c-1.6.1-3 .9-4.6 1.4 0 3.6 1.5 4.6 3.9 4.7h9.2c3.8 0 7.7.3 11.5 0 1.2-.1 2.2-2 3.3-3-1.1-1-2.1-2.3-3.4-3.1-.7-.4-1.7-.3-2.6-.3zM687 451c-7 2.9-13.8 6-20.7 9-6 2.8-8.4 8-9.1 14.1-.4 3.7 1 6.4 4.7 7.8 3 1.2 5.6 3.2 8.6 4.4a13 13 0 017.7 8.5c1 3.1 1.8 6.5 2 9.7.3 7.7.4 15.3.5 23v2.8c.2 5.3-1 9.7-6.3 12.3l-.4.2c-4.2 2-8 5-12.6 8.1l.8.5c1.6 1 2.8 1.6 4 2.2l8.5 3.7 1.5.6c3.2 1.2 5 3.5 5 7 .3 7.3.4 14.8.5 22.2 0 7.2 5.4 11.7 13 10.9-.7-5-1.8-9.8-2-14.6-.4-10.5-.2-21-.3-31.5-.2-20.8-.5-41.6-.5-62.3a23 23 0 0113.2-22.2c6-3 12-5.7 18-8.6l.4-.2 3.3-1.8c-2.5-1.2-4-2.2-5.6-2.7-4.7-1.4-9.3-2.9-14-3.8l-1-.1a33 33 0 00-19.2.8zM594 590.3c-.6 4.3.8 5.6 3.7 5.6l6.5.1h13c2.8 0 4.7-1.3 4-5.7-9-1-18-.7-27.2 0zm55.8-11c-2.1 3.3-1.5 12.2.8 14.5 2.1-3.5 1.7-12-.8-14.5zm-56.1 2.7c2.4 3.6 24 4 27.1.3-3.2-4.3-25-4.4-27.1-.3zm2.8-12.8c-1.1 0-2.2 1.5-3.3 2.3 3 3.4 22.7 4.3 28.5 1.2-1.5-1.4-2.6-3.2-3.8-3.3-7-.3-14.3-.3-21.4-.2zm123.6-83c-3.6 2.4-5 4.8-5 8.2v26c0 10.3.2 20.6.3 30.8.1 6 .1 12 .5 18 0 1.6 1.4 3.2 2.1 4.9 4-1.6 4.8-4.3 4.9-7.2v-.3-20.3l-1.2-54.6c0-1.7-1-3.3-1.6-5.5zm-47.5 75.2l-22.1-8-1.6.8c-.2 3.8-.6 7.6-.6 11.5 0 6.3 4.6 9.3 10.3 6.5 4.1-2 7.8-5 11.6-7.5.7-.5 1.1-1.5 2.4-3.3zm-79.2 0c2.8 3.7 24 4.4 28.2.4-1.3-1-2.4-2.2-3.7-2.4-8.9-1.6-22.5-.5-24.5 2zm-138.3-15c1 .6 2 1.4 3 1.8l11.9 4.5 29.7 11.2c4.8 1.7 14.5-2.3 17.8-7.3-1.3-.7-2.5-1.6-3.8-2.1-10.6-3.8-21.4-7-31.8-11.3l-2.1-.8c-9.1-3.8-16.5.1-24.7 4zM642 259.7c9.2.6 18.2 3 27.3 4.4 14 2.2 27 7.4 40.2 12.4 14 5.2 28.1 9.6 42.3 14.1 2.5.8 5.3.7 8 1 11.4 1.2 22.8 2.6 34.3 3.5 3 .3 6.3-.6 9.4-1l27.3-3.4c1.7-.2 3.4 0 5 0 1 3.7-1.3 4.4-3.2 4.9l-3.8.8a294 294 0 01-20.2 3.8c-13 1.8-26.2 1-39.4 1-19.5-.3-38-5.3-57-8.4-2-.4-4-1.7-6-2.6l-2-.9a161.2 161.2 0 00-34.6-11.5l-3.2-.4-.4.9 26.1 18.8.9-1.1-13.2-10.2.3-.8c1 .2 2.2 0 3 .6 3.7 2.5 7.3 5 10.9 7.7l2.1 1.7a84.4 84.4 0 0044.2 19.8c5 .5 10.3-1.2 15.4-1.7 1.6 0 3.6.2 4.8 1 5.8 4.5 11.3 9.3 17.1 13.7A107 107 0 00811 346a32 32 0 0025.6-2.6l.9-.5c6.7-3.6 13.9-6.6 21.7-5.3 3.3.5 6.7 2.6 9 5 3.4 3.5 1.7 9.4-2.8 11.6-3.3 1.6-6.8 3-10 4.6-1.8.8-3.2 2.2-4.9 4 7 1.4 11.3 5.7 14.6 11.7.5 9.6-7.6 18.4-17.7 19-3.2.1-6.5 1.3-9.8 1.5a40 40 0 01-24.6-5.7l-3-1.8a74.1 74.1 0 00-13.4-7.3c-18.6-6.9-36-17-56-20l-23.4-3.5c-1.2-.2-2.5-.1-3.7 0h-.5a78.6 78.6 0 01-44.7-8.2l-.7-.3c-17-8.2-34.6-15.5-51.7-23.6-11.1-5.2-20.6-1.3-29.5 4.6a162.8 162.8 0 00-36 35.5l-2.6 3.2a354 354 0 01-50.4 53.7 192.5 192.5 0 01-54.2 29.6c-4.3 1.5-9 1.8-13.7 2.2h-.7c-4.8.5-5.7 1.2-5.6 5.9v.3l.2 2.8v1c.3 2.6-.8 4.3-3.3 5.4-14.8 6.6-29.4 13.8-44.5 20-14.8 6-30.1 10.4-45.8 13.7l-1.6.4c-14.8 3-29.4 7-43.9 11.3a41.3 41.3 0 00-26.5 20.5c-2.7 5.2-4.7 10.8-7.8 15.7-4.7 7.3-12.5 9.3-20.5 10-1.1.2-2.7-.5-3.4-1.4l-1-1.3a60 60 0 01-5.7-8.4c-1.5-2.8.3-7.6 3.8-9.8l.2-.1c6.9-4.2 11.3-10.7 16.7-16.3 5.8-6.2 12.2-12 19.2-17s15-8.7 22.7-12.6c5.8-3 12-5 18-7.8 3.4-1.7 6.6-4 9.7-6.7-1.2.3-2.3.4-3.4.8-10.6 3.8-21 8-31.6 11.5l-2.3.7a82.6 82.6 0 00-27.5 14.3c-6.1 5-11.8 10.7-17.8 15.9a52 52 0 01-7.2 5c-.6.4-1.7 0-2.6 0l-.7-1.4c1.6-1.7 3-3.5 4.8-5 7.2-6.5 14.3-13.2 22-19.2 7-5.7 14.7-10.5 23.4-13.7 13.2-4.8 26.4-9.8 39.5-14.8 13.9-5.2 27.8-10.3 41.6-15.9 9-3.7 17.9-8.2 26.7-12.4 1.2-.6 2.1-1.7 3.2-2.5-.6-.8-.7-1.3-1-1.3-11.9-3-20-11.2-28.8-19a204 204 0 00-24.2-18.2 67.4 67.4 0 00-36.6-9.6c-10.2-.1-20.3 1.4-30 4.1-9.5 2.7-18.7 6.1-28.1 9-5.5 1.7-11.2 3-16.7 4.5-4.6 1.3-9 3.5-13.5 4-3.9.5-8-.9-11.8-1.6-.7 0-1.3-1-2-1l-.5-.1c-3-.7-5.3-2-5.5-5.7-.3-4.1 1.7-7 4.6-9.2 4.5-3.2 9.2-6 13.6-9.3l1.6-1.2c11-8.1 22.1-16 30.8-26.9 2.1-2.6 5.6-4.2 8.4-6.4l8.7-6.6c2.4-1.7 5-3.2 7.3-5 4-3.3 7.6-7.3 12-10.1 4.7-3.2 10-5.6 15-8.2l1-.5c3.4-1.7 6.9-3.4 10.4-4.9 1.4-.6 3-.6 4.4-1l.8 1.8-10.4 7.2.6 1.5 19-5.4c1.8 6.2-6.3 6.8-6.3 12l2.1.4 1.1.2c7.3 1.1 14.6 2.4 21.9 3.4l2.7.4c12.4 1.6 24.4 6.7 37 5.3 8.1-.8 16-2.4 24-3.5l2.3-.3c13.4-1.6 25.5-7.3 38-12 8.1-3 15.7-7.3 23.6-11l20-9.5 2.3-1.3 8-4.2 8-4.2 9.1-5 3-1.7c5-2.7 10-5.8 15.3-8 6-2.5 12.3-4.6 18.5-6.7l3.4-1.1c10.2-3.3 20.3-7.1 30.7-9.4 13.6-2.9 27.4-5 41.2-6.5a169 169 0 0129.4-.8zm-48 288.9c-1.3 3.2 0 4.8 2.3 4.9 7 .4 13.9.6 20.8.5 1.3 0 2.6-1.6 4-2.5l-.6-2c-8.8-2-17.7-1.1-26.4-1zm-6.7-279.3c-12.5 2.6-24.7 7.3-37 11l-1.6.5c-21.5 6.5-40.4 18.3-60 28.8l-1.2.6c-15.5 8.4-31 17-47 24.6a197.1 197.1 0 01-49.7 15.6c-3.6.6-7.4 2.2-11 1.8-11.9-1.1-23.8-2.8-35.7-4.6-6.5-1-13-2.4-19.6-3.6l-2.1-.4c-5.2-1-10.4-2.2-15.6-2.9l-3.8-.4c-3.9-.4-7.7-.5-10.6 3.8l-.2.3c-4.2 6.4-11 9.6-18 12.1l-3.9-5c4.5-4.3 8.4-9.2 13.4-12.8l1.6 1.5-7.9 9 .9.8c8.6-3.3 13-11 18-18.2a6.8 6.8 0 00-3.4.2c-1.6.5-3 1.7-4.6 1.9-7.9.6-13.9 4.8-19.7 9.4l-1.2.9c-2.1 1.7-4.4 3-7.5 1.8-.9-.4-2.3.2-3.3.7A100.3 100.3 0 00234 364v.7c2.6 2.8 8-.6 9.6 4.3-6.1 6.6-9.3 7.1-16.7 3l-40.3 29.4 6.3.6-3.9 5.5 4.4 2.6c3.1-1.3 6.5-2.5 9.6-4 2.7-1.5 5-3.7 7.7-5a342 342 0 0117.9-8c1-.5 2.5-.1 3.8-.1 1.1 5.4-5.6 3.1-6 7.9 3.3-1 6.3-1.8 9.2-2.9 4.4-1.6 8.6-4.2 13.2-5a134 134 0 0036.5-12.3c1.4-.7 3.2-.6 4.9-.8l.5 1.3-4 6.6 2.1.8c6.6 1.3 13.2 2.7 19.8 3.8l2 .3c12.2 1.8 22 8.3 31.7 15 6.2 4.2 11.3 10 17.4 14.4 7.2 5.3 15 9.9 24.5 11.5l1.5-3.9.5-1.2.6-1.5c.8-2.2 1.5-4.6 5-3 0 .7.2 1.2 0 1.6l-.8 2.5a148 148 0 01-7.8 19.6 41.7 41.7 0 01-26.3 22.4c-7.7 2.4-15.6 4.3-23 7.4-20 8.3-40 16.8-59.6 25.9a100.2 100.2 0 00-30.1 21.6c-6.5 6.7-11 15.2-19.6 19.8-1 .5-1.3 2.4-1.8 3.5 7.2 5.8 14.3 4.2 20-3.4l3.1-4.4c4-5.5 8.1-10.9 12.8-15.8 5.7-6 12-11.8 19-16 14.7-8.5 31-13.2 47.7-16.1a122 122 0 0012.4-3c9.6-2.7 19.2-5.4 28.6-8.4 8-2.5 15.8-5.3 23.5-8.3 6-2.4 11.8-5.1 17.4-8.2 2-1.1 4-3.5 5-5.8 1.3-3.2 1.7-6.8 2.8-10.2 2.4-8 7.2-14.3 14.3-18.8 3.3-2.1 5.2-1.7 7.1 1.8l-3 5.8c2.6.2 4.6.7 6.3.3 3.8-.7 7.5-1.8 11-3.1 6.4-2.4 13-4.5 18.7-7.9 18.8-11.1 33.6-27 49.2-42 6.7-6.5 12.9-13.3 19.5-19.7 9.3-9 18.6-18 28.3-26.6 5-4.5 10.5-8.3 15.9-12.4 3-2.2 6-4.1 9.1-6.2l-.5-1c-6.6.3-12.6 4-19.4 3.5.3-1.3.8-2.5 1.5-2.7 6.4-2.2 12.7-5.1 19.3-6.1 7.4-1 15-1.2 22.5.7l3.6.8c11.5 2.9 23 6 33.4 12l.8.5a258 258 0 0040.7 19.4c10.3 3.9 20.8 2.8 31.2 2.9a84 84 0 0128.6 4.5c7.7 2.8 15.3 5.8 22.8 9 9.7 4.3 19.3 9 28.9 13.5 12.7 6 25.8 9.4 39.8 6.2 2.4-.6 4.5-2.4 6.7-3.7l-3.2-6.3-3.9-.7-2-3c-2.5.3-5.1 0-7.2 1-7.6 3.5-15.5 2.1-22.5-.2-9.5-3-18.6-7.7-27.2-13-10.5-6.4-20.3-14.1-30.5-21.2-1.3-.9-3-1.5-4.5-1.8-5.1-.8-10.3-1.2-15.4-2a56.4 56.4 0 01-33.1-19l-.5-.5c-3.9-4.4-8.1-8.5-12.4-12.5-3.6-3.2-7.6-6-11.4-9a65.6 65.6 0 00-28.2-14.4c-1.2-.3-2.3-1.3-3.4-2l.3-1.2c.9-.3 1.8-.9 2.7-.9 9.5.5 19.2-1.4 28.6 1.9 9 3 18.3 5.4 26.8 9.4 10 4.7 20.5 7.2 31.2 9.1 1.1.3 2.4 0 3.5 0a133 133 0 00-18-7.6l-5.4-2c-6.4-2.3-12.7-4.6-19.2-6.6l-4.7-1.6c-7-2.2-13.9-4.4-21-6a162 162 0 00-22.7-2.9c-7.3-.5-14.6 0-21.9-.6-13.2-1-26.2.8-38.9 3.5zM652 546.8l-.8-1-.5.3.8 1 .5-.3zm-58.5-6c1.6.8 2.5 1.8 3.6 1.9 6.7.4 13.5.7 20.3.8 1.2 0 2.5-1.3 4-2.2-3.5-2.9-23.4-3.3-27.9-.6zm61.7-18.2c-5 1-7.6 5.4-6.8 11.4.4 3.3 3.8 5.5 8.6 5.3 2.7-5.3 1.8-13.8-1.8-16.7zm-115.5-9.8c6.1 2 13 1.7 19 5.9-1.4.5-2 1-2.7 1-7.5-.5-15-1-22.6-1.3-2 0-4 .5-5.9.8v1.8c1.5.3 3 1 4.6 1 8.4.2 16.8.2 25.2.2h6.7c2.5 0 5.2 0 7.2 3.4-7.6 3.5-15.5.8-24 2l.5.5c1.3 1.1 2 1.8 2.8 2.2 4 2.2 8 4.4 12.2 6.4 1 .5 2.5.4 3.6 0l19.7-6c1.5-.5 3-1.4 4.4-2.1l-.2-1.3c-1.5-.8-3-1.8-4.5-2.5a542.8 542.8 0 00-40.3-14.7l-.3-.1c-2.2-.7-4.4-.6-5.4 2.8zm53.9 18.2c1.6 1 2.8 2.6 4 2.6 7.8.3 15.8 1.8 23.7-1.7-3.2-3.8-22.2-4.4-27.7-1zm-5.6-9.1c2.8 2.6 29 3 32.2.6-3.4-2.4-29.1-2.9-32.2-.6zm-6.5-7c14.3 1.3 27.7 1.3 41-.1-4-3.2-37.2-3.1-41 .2zm38.1-36c-2 .8-4.1 1.2-6.1 2-7.1 2.6-14.2 5.1-21.2 8-4.3 1.9-7.3 6.9-6.8 10l13.4 4-.3 2c-2.3-.2-4.7-.4-7-.4h-1c-2.5 0-5.4-1.3-8.3 2h.9l4.7 1 25 1.6 8.3.6c3 .2 5.3-.1 6.2-3.5.3-1 1.3-2.1 2.2-2.5 8.1-3.8 16.3-7.4 24.5-11.1l1.3-.6 8.3-4c-2-1.4-3-2.4-4-2.8l-15.2-6.1-2.2-1a26.3 26.3 0 00-22.7.7zm-293.3-5.4l-.6-1.5-11 4.6.6 1 11-4zm478-112.3c4.1 4.6 16 7 19.6 3.9l-19.6-3.9zm-105.7-59.1c.7 1.3 1.6 2.4 2.6 3.3 2.7 2.5 5.7 4.8 8.2 7.5 7.3 8 16 12.9 26.8 13.7h.6c4.7.3 9.4.9 14.1 1.6 1.6.2 3.4 1 4.5 2 8.7 8.4 19 14.6 29.1 21.2a39 39 0 0020.3 5.8c3 0 5.8.9 8.8 1.2l7 .9c3.8.4 7.7.9 11.6 1.2 9.7.7 18-3.5 26.1-7.8.7-.4 1.1-1.2 1.7-1.9l-4-2.8 7.7-3.4-.3-.7-14.1 1.4-.6-.9c-2 1.8-3.7 3.8-5.8 5.3-9.6 6.7-20.4 5.2-30.5 2.8-13.8-3.2-25.5-11.5-37.2-19.4-6.5-4.5-12.5-9.7-18.6-14.5-22.5 5-40.2-5.9-58-16.5zm-416.3 28l-.8-1.5-7 3.6.7 1.6 7.1-3.6zM761 296.3l-1.9-.2v1l1.9-.1v-.7z" fill="#000" fill-rule="evenodd"/></svg>