<svg xmlns="http://www.w3.org/2000/svg" viewBox="0 0 1080 1080"><path d="M338.56 475.81L378.3 543c4.96 8.6 4.96 22.7 0 31.3l-20.21 35.27c-4.98 8.6-4.98 22.7-.02 31.31l26.86 44.57c4.97 8.63 17.15 15.67 27.09 15.65l59.35-.06c9.93-.02 22.13-7.08 27.11-15.68l61.9-104.4c4.99-8.6 17.18-15.64 27.13-15.64h80.44L555.38 752.49c-9.93 17.21-34.33 32.26-54.23 32.3l-110.15.14c-19.88.03-44.27-15-54.18-32.23l-61.45-104.9c-11.81-20.07-10.85-42.57.05-62.62l63.14-109.37zm357.13-16.45c19.88 0 46.2 14.08 56.17 31.29l53.77 92.86c9.97 17.2 9.97 45.35 0 62.55l-59.87 106.61c-9.96 19.11-34.37 32.23-54.25 32.23H564.28l38.78-68.13c4.98-8.61 17.17-15.66 27.12-15.66h38.52c9.94 0 22.15-7.03 27.14-15.63l27.98-48.3c4.99-8.6 4.04-22.67-.95-31.27l-28.77-47.12c-4.99-8.6-17.2-15.63-27.14-15.63H545.03c-9.93 0-22.14-7.05-27.1-15.66l-39.75-68.14h217.5zM481.08 294.43l123.21.18c19.87.03 42.38 14.14 52.33 31.36l65.03 111.25h-81.37c-9.96 0-22.16-7.04-27.13-15.65l-19.26-35.26c-4.96-8.6-17.17-15.67-27.12-15.67l-51.98-.1c-9.96-.01-22.16 7.02-27.1 15.64l-27.72 48.12c-4.95 8.62-8.74 22.72-3.76 31.33l61.9 107.23c4.97 8.61 4.97 22.7 0 31.3l-38.8 67.2-108.74-183.37c-9.94-17.21-9.96-48.25-.05-65.48l56.38-96.8c9.91-17.24 34.3-31.3 54.18-31.28z" fill="#000" fill-rule="evenodd"/></svg>