<svg viewBox="0 0 1080 1080" xmlns="http://www.w3.org/2000/svg"><path d="M422.2 330.8c6.5 0 15.5 2.5 22.5 6.9 9.1 5.5 14.5 13.5 14.5 23.7 0 22.2-18 59.8-29.1 59.8-3 0-4-2.7-4.1-7.6V411.9c0-2.7.3-5.5 1.2-12.4l.7-5.7.2-1.3c1-8.6 1.2-14.3.6-18.7-.8-5.2-2.9-7.8-6.5-7.8-7.4 0-15.9 25.5-23 66l-.3 2.2a844.5 844.5 0 00-8.2 63.5l207.7-75.8-17.9 38.7L836 367.7 791.2 406h64.4L530 505.6l10-35.8-150.9 48.9-.3 11.3v7.3a567 567 0 01-3.3 72.3v1l-.2 1.1h1.2l2.4-.3 2.4-.2c19.3-1.7 32.4-4 39.2-6.9l.4-.1.3-1c14.6-45.5 42.6-71.4 84-77.5l1.2-.2 1.3-.2c19.8-2.5 29.6 6.2 27 27.5-2.8 21.7-45.8 56.4-71.2 58.5h-1.1v.4c1.6 13.3 8 19.9 19.1 20.2h.8c7.8 0 21.2-4.8 40-14.4l1.6-.8v-.4a83 83 0 0140.5-74.2l.8-.6.8-.5a108 108 0 0163.8-16c.7.1 1.1.9.8 1.5v.1l-13.1 20.7a1 1 0 01-.7.4c-31.1 4.3-49 19.7-53.8 46.5-1.3 7 0 11.4 3 14 2.3 1.7 5.2 2.5 8.6 2.6h.8c4.5 0 9.4-2 15.6-8.1 9.3-9.2 18.8-25.7 28.5-51.4.1-.4.5-.6.8-.7h30.2a1 1 0 01.9 1.4l-4.3 8.2a476.2 476.2 0 01-14.8 27.4l-.4.7-.4.6c-6.4 10.2-5.7 14.8 1.7 15h.5c3.4 0 8-1.4 13-4.4a64 64 0 0018.6-18.8l.5-.6.3-.5-.2-.1c-5-4-7.5-12.2-7.7-24.5V553.7c0-24.5 13.5-47 34.4-62.4 18.2-13.5 38.2-18.2 45.5-10.2 2.5 2.8 1.9 5.7-1.3 8.4-2.2 2-5.6 3.9-11.2 6.5l-1 .5-1.4.6a43.3 43.3 0 00-17.5 16.5 70.6 70.6 0 00-9.9 38c0 10 6 13.5 14.6 9.9a38.4 38.4 0 0019.8-25.5l.1-.5v-.1l-.4-.2c-9.8-2.9-15-8.2-15.3-15.8v-.8c0-12.4 8-19.1 22.8-19.1 9.4 0 15.2 4.1 16.9 12.2v.5h.3c6-1 11.3-3.5 16-7.5l.6-.4.4-.4c6.2-5.4 16.2 4.7 11.7 11.5a43.7 43.7 0 01-28.1 15.2h-.8v.5c-7.7 39.6-24.6 60-50.6 60.8h-5a38 38 0 01-15.5-2.5l-.2-.1h-.1l-.2.3c-12.4 22.5-27.2 34.5-44.5 35.9h-1l-1.3.1h-1.2c-10.4.3-17.7-1.2-22-4.6l-.2-.2a59.8 59.8 0 01-49.3 25H572c-15.5 0-26.2-3.9-32-11.6l-.2-.4v-.1l-.7.4a109 109 0 01-58 16.4h-2c-22.8 0-38.1-9-45.6-26.9l-.2-.5-.2-.4-2.8.4-3.6.5-2.5.3c-15.6 2-29 3.4-40.4 4h-1v.6a219 219 0 01-6 25.7l-.4 1-.2.8h.3c16-1.3 30-1.8 44.7-1.6H426l2.2.1c6.6.2 13.6.5 22.3 1l32 1.8 4.3.2 4.1.2c19.2 1 37.2 1.6 58 2 53.5 1.1 115-21.4 176-59.7 47-29.4 90-67 103.5-87.8l.4-.6 1-1.6c3-4.8 6.3-6.4 13.4-6.4 3.8 0 7 1 9 2.8 2.1 2 2.2 4.9.1 7.6C806.7 572.4 757 615.8 705 645a322 322 0 01-130.5 42c-14.2 1.2-29.4 1-47.9-.3l-2.8-.2-1.8-.1-18.4-1.7-25.7-2.7-8.4-.9-6.3-.6-5-.5c-33-3.3-58.1-5-86.3-5.5h-3.3v.2a94 94 0 01-36.6 36.9l-.7.4-.8.4A104 104 0 01293 725c-9 1-16.4-1-21.8-5-4.3-3.4-6.9-8-7.1-12.2v-1.7c.6-14.4 11.4-25.4 30-33.6 13.3-5.8 29.5-9.8 47.5-12.5l1.6-.3v-.8l.2-.8c.6-6.5.9-15 .8-26.8V623.6l-.2-5v-7.4l-1-38.9-.7-38.4-50.4 16.4 44 24.4-126.4-1.9 89.7-80.5-12.5 43.4 55.3-20.2v-3.7c-.4-38.3 5.4-82 16.6-115.4 14-41.6 35.3-65.6 63.7-65.6zm-84 345.7l.2-.4h-.4a76.4 76.4 0 00-40.3 17.8c-6.8 6.8-6.5 12 .4 12.4h1.4c15.3-.3 30.3-13 38.7-29.8zm149.3-109.2l-.3.4-.5.6c-4.4 5-8 10.7-10.1 15.5-2 4.3-2.2 7.2-1.3 7.5 2.7 1 17.8-8.7 26.5-17l.2-.4 1.8-1.7 1-1 .7-.7c9.1-9.3 12-14.7 8.6-18.2-4-3.9-16 3.2-26.6 15zm252-54.5c-1.3 1.4-1.2 3.1 1 5 3 2.5 4.6 2.4 6 .2 1-1.6.3-3.6-2-5.1-1.8-1.2-4-1.1-5-.1z" fill="#000" fill-rule="evenodd"/></svg>