<svg viewBox="0 0 1080 1080" xmlns="http://www.w3.org/2000/svg"><path d="M853.4 437.8l30.6-4.4-16.1 42.4-3 7.5-1.7 4.4c-2.4 6.3-5.4 15.1-2 16.5 2.6 1 11.3-6.3 26.1-22l4.8 5.8-34.3 30.1c-6 4.6-11.6 6.8-16.7 6.8-5 0-8-6.5-8.8-19.6-16.2 20.2-32.2 29.8-48 28.9-11.6-.7-17-9-16-25l-3.8 4c-11.4 12.1-31 32-41.2 28.9-11.6-3.6-6.9-26-4-34.6l.5-1.5 11.3-32a1 1 0 00-1.5-1.2L697 502.2l-17.3 46.5-31.3 6L662 517l-1.4 1.7c-23.2 26.9-39 40.3-47.4 40.3-12.9 0-11.8-25-6.6-35.1l-4.2 3.5a422 422 0 01-27.8 22l-.9 2.5c-17.8 49-26.3 48.6-58.9 64.2 77 3.5 152-18.3 225-65.3l2.2-1.5L854.9 532c-107.8 70.8-203.8 108.2-288 112.4-138.2 6.9-230-70.6-267-80.6-16 45.7-59.3 57.7-86.8 57.7s-42.3-20.1-42.3-36.4c0-16.3 12.3-25 20.9-25h.5c8.6.1 20.3 4.5 18.3 20-1.3 10.5-9 14.2-23 11-3.3 4.8 7.4 22.1 32.8 18.4 27.4-4.1 37.3-22.4 45.7-46.8l3.5-10.1 17.4-51.6a124.7 124.7 0 0043-23.8l.9.2c-33.4-8.1-90.1 22-112.1 57.7-1.5-15.3 39.8-84 118.2-86.7 58.2-2 97.8 89.6-4.3 114.4 56.7 30.1 112.3 47.6 167 52.4-4.4-3-7.3-8-6.5-12 4-20.4 37.8-33.2 45.1-38.6l.2-.1 5-13c-17.7 18.7-32.3 27.5-44 26.5-12.8-1.2-19.3-10-19.3-26.6-13.5 22-29.5 34.4-48 37.3-32 5-41.3-19.5-44.7-32.1-3.3-12.4 6.1-52.2 44.6-56.2 27.7-3 41.1 9.9 40.3 38.3v1l-58.5 11.7c1.5 13 10.4 19.5 26.6 19.5 32.4 0 43.5-51.8 66.6-73a50.6 50.6 0 0158-9.4l.7.2 2.3-7.7 31.3-3.6-.8 2.6c-4.8 15.3-11 33.8-18.8 55.5l1.2-.8c19.5-13.7 30.5-23.8 33-30.3l1-2.4c2.8-6.7 6.5-16.4 11.2-29l28.3-3.7-21.3 60c-1.8 4-2.2 6.4-1.3 7.4 1.3 1.5 5.2-.5 16.7-15l3.3-4.3 17-21.9 11-31 33-4.9-8.9 24 2.6-2c20.2-16.5 32.4-25.1 36.5-26l.6-.1c6.9-1.4 13.3.3 15.6 9.6 2.6 10.7-15.5 47-12.3 50.7 3.3 3.7 9.1-4.1 12.3-8.4l3.8-5.2A950 950 0 00776 484c12-24.6 28.8-39 50.4-43 8.4-1.6 16 .9 22.6 7.4l4.3-10.5zM533.8 579.3l-1.4 1c-15 10.3-21.6 17.2-20 20.8 2.4 5.7 12.2 10.6 21.4-21.8zM331 477.3l-.6 1.7c-9 24.2-18 49.2-27 74.8 28.5 4 48.8-11.9 53.9-31.2 4.9-18.7-5.1-40-26.3-45.3zm180.2 35.4c-10.4 15.7-10 33.1 0 39.3 10 6.2 25.2-.7 35-16.2 9.7-15.6 10.7-33.6 1.5-39.3-9.6-6-26 .5-36.5 16.2zm-79-1.8c-10.9 1.3-21.5 11.7-21.5 31.7l36-7.6v-1.6c-.1-12.6-1.2-24-14.5-22.5zm364.9-39.2c-9 16.3-7.2 33.3 2.8 38.4 10 5.1 24.2-3.1 32.5-19.3 8.2-16.2 8-33.9-1.3-38.5-9.7-5-25.2 3-34 19.4zm-147.4-46.1a18 18 0 010 36.2 18 18 0 01-18-18.1c0-10 8.1-18.1 18-18.1z" fill="#000" fill-rule="evenodd"/></svg>