<svg viewBox="0 0 1080 1080" xmlns="http://www.w3.org/2000/svg"><path d="M540.5 314.5c95 0 180.4 23.6 242.5 65.3 61.6 41.5 96.4 98.4 96.4 160.2 0 61.8-34.8 118.7-96.4 160.2-62.1 41.7-147.4 65.3-242.5 65.3-95 0-180.4-23.6-242.5-65.3-61.6-41.5-96.4-98.4-96.4-160.2 0-61.8 34.8-118.7 96.4-160.2 62.1-41.7 147.4-65.3 242.5-65.3zm0 6c-193.8 0-333 98.3-333 219.5s139.2 219.5 333 219.5 333-98.3 333-219.5-139.2-219.5-333-219.5zm0 26.2c188 0 323 86.6 323 193.3 0 106.7-135 193.3-323 193.3s-323-86.6-323-193.3c0-106.7 135-193.3 323-193.3zM383.8 415h-2.2c-4 0-7.8.5-11.7 1l-1.3.1-2.6.3a118.8 118.8 0 00-46.6 16.4c-11.9 7-26.1 17.9-32.8 29.2l8.5 6 6.4-5.3 6.2-5.1c8.6-7 18.5-12 28.8-15.9 10.6-4 21.6-6.4 32.9-7.7a56 56 0 0159.6 31.8c6.3 12.7 7.3 26 3.4 39.5a83.2 83.2 0 01-17.8 31c-10.4 11.9-23.1 20.9-37.8 27-5 2.1-10.1 3.8-15.6 4.7-3.5-3.5-6.8-7-10.4-10.4-3.6-3.4-7.4-6.6-11-9.8l4-17.5c1.2-5.7 2.6-11.4 4-17.1 2.6-11.3 6-22.5 7.8-34.4-7 0-19 2.9-27.4 5.8l-.5.2-8.8 54.7h-8.6c-4.5 0-9 0-13.3 1-7 1.8-11.8 6-13.7 12.9-1.7 6.3 0 12.3 4.8 16.8 5.6 5 14.6 11.2 22.9 14.3l.6.2-3.4 22.3 2.6-.6c5.2-1 9.9-2.2 14.3-4.1l.7-.3 3.9-14.7 14-1c1 1.3 2 2.3 2.6 3.5l1.3 2.4c1.4 2.8 2.8 5.6 4 8.5 4.4 10.3 9.2 20.3 15.2 29.8 5 7.9 10.7 15.2 16.8 22.3 10 11.9 21.3 22 35 29.5 12.5 7 26 11.3 40 14.2 4.7 1 7.7-1 11-3.4l1-.8 1.4-1a175.6 175.6 0 01-61.7-43.3 176.8 176.8 0 01-38.6-64.9c1.3-.3 2.4-.7 3.4-.8a115.3 115.3 0 0072.8-42.2 75.9 75.9 0 0015.4-72.2 76.3 76.3 0 00-44.6-47.4 95.8 95.8 0 00-34.9-5.5zm395.8 29l-20 5.5-9.7 24-8.6 21.4c-3.5 8.5-6.8 17-10.2 25.6-2.4 6-5 12-7.3 18.1l-1 2.8c-2 5.4-4.6 10.6-8 15.3l-.4.6-.7.9c-3.4 4.3-7.2 8.4-14 6.2-4.2-2.4-5.5-6.4-5.2-11 .2-2 .6-4 1.2-6l.3-1.3 2-7.3 4.4-16.3 1.7-6.1c.5-1.8 1.2-5.2-.6-4.8l-.8.1c-3.3.6-5.6 1.3-7 2.8-3.8 4.1-8.3 4.8-13.7 2.2l-1-.4a54.4 54.4 0 00-59.7 7.7 53.3 53.3 0 00-13.5 17.5l-.5 1.1c-1.8 3.8-3.9 7.1-7.3 9.8a58.9 58.9 0 01-40.6 12.9c-3.4-.2-7-.8-10.2-2-6.6-2.5-12.1-12.3-7-22 1.1-2 2.6-4 4.2-5.7 11-10.7 27.1-8.6 33.2 4.7.4.8 1 1.5 1.7 2.2l.2.3 20.3-5.5a29 29 0 00-9.4-16.7 34.3 34.3 0 00-18.3-8.4 51.5 51.5 0 00-36.6 8A44 44 0 00522 537l-.6 1.2a48.6 48.6 0 01-29.3 24.6c-4 1-6.6-1.1-7-5.2 0-1.4.3-3 .8-4.4l10.3-28.8 1.5-4.4.7-2.5 1.1-3.3-1.7.3-13 2.8-4.1 1-4.5 1-1.6 3.8c-4 11-8 22.3-12.3 33.3-2.3 5.9-3.8 11.9-4.8 18.1-1.2 7.5 4.5 14 10 14.9 6.3 1 12.2-.6 17.8-3.1a97.4 97.4 0 0020.5-12.8c4.3-3.3 8.4-6.8 12.8-10.4l1.3 2.2.2.4.5.8c7.8 14 20 20.5 35.9 19.8 11.8-.5 23-4 33.7-9.1 6.6-3.2 12.9-7.2 19.6-11l2.3 2.5a52 52 0 0017.2 14.4 33.8 33.8 0 0039.7-6c1.6-1.5 3.3-2 5.2-1 12.3 16.5 30 13 39.3.8l.8-.3c3.6-1.3 4.6-1 6.9 1.7l.2.2.6.8c3.3 4 7.3 7 12 8.6l.7.2c10.9 3.5 30.2 5.3 54.9-47.7.5-1 .8-2.3 1.2-3.6l.2-.5h-9.3l-.7 1.2-.7 1.1c-10.6 16.9-16 21.7-21.8 25.8l-.5.4-1.7 1.1c-4 2.7-7.5 2.2-10.1-.4-2.7-2.7-3-9.5-1.3-14.5l3.1-9.2c4-12 8-24 11.9-36.2l10.5-32.5 5-15.1.8-2.8.4-1.3 3.1-9.9zm-101 87l-1.5 5.2-4.7 18-.5 2-.4 1.5a34.3 34.3 0 01-19.5 9.4c-11.9 1.7-18.3-8-18-16.3.2-11.8 11.2-23.6 23.5-23.8h.7c5.8 0 11.3-.9 20.4 4zm-367.4 24.4l.3.2c2.3 1.3 4.3 3.2 3 6.2-1.4 3.2-5.5 3.2-9.5 1.3-3-1.5-4.7-4-3.5-7 1.2-2.8 6-2.8 9.7-.7zM499 469c-9 0-16.6 7.1-16.5 16a16.7 16.7 0 1033.6 0c0-8.2-8.4-16.5-17.1-16z" fill="#000" fill-rule="nonzero"/></svg>