<svg viewBox="0 0 1080 1080" xmlns="http://www.w3.org/2000/svg"><path d="M757 262c10 6 18 13 23 23l1 1c5 10 8 20 8 47v414c0 27-3 37-8 47-6 10-13 18-23 23l-1 1c-10 5-20 8-47 8H370c-27 0-37-3-47-8-10-6-18-14-24-24-5-10-8-20-8-47V333c0-27 3-37 8-47 6-10 14-18 24-24 10-5 20-8 47-8h340c27 0 37 3 47 8zm-47 4H365c-19 0-28 2-37 7-8 4-14 10-18 18v1l-1 1c-4 8-6 17-6 38v421c0 19 2 28 7 37 4 8 10 14 18 18h1l1 1c8 4 17 6 38 6h342c23 0 32-2 42-7 8-4 14-10 18-18v-1l1-1c4-8 6-17 6-38V333c0-23-2-32-7-42-4-8-10-14-18-18h-1l-1-1c-8-4-17-6-38-6h-2zm29 38v58H416c-9 0-16 7-16 16v116c0 9 7 16 16 17h265c31 0 56 24 58 55v153c0 30-25 56-55 57H341v-58h323c9 0 16-7 16-16V586c0-9-7-16-16-17H399c-31 0-56-24-58-55V361c0-30 25-56 55-57h343zm-76 283v47H398a9 9 0 000 19h265v47H364c-12 0-22-10-23-22v-67c0-13 10-23 22-23h1v-1h299zm76-207v47H475a9 9 0 00-1 19h265v47H441c-13 0-23-10-23-22l-1-1v-67c0-12 10-22 22-23h300z" fill="#000" fill-rule="nonzero"/></svg>