<svg viewBox="0 0 1080 1080" xmlns="http://www.w3.org/2000/svg"><path d="M698.2 737.6c3.6 0 7.2.4 10.8.8 9.3 1 17 4.8 23.5 11.6a31.2 31.2 0 014.3 39.7 64.6 64.6 0 01-18.9 18c-1.2.8-2.7 1.2-4 3.2l17 52c-6.8 1-13.1.4-20.2.6L695.1 816c-5.5-.2-10.4 1.7-15.8.6-1.8 8.3-3.2 16-5.3 23.4-2 7.4-.4 15-1.8 23h-2.8c-6.2.2-12.2.3-18.7-.2l3-15.6 1.5-7.6 15.5-77.7c.7-3.5 1-7.1 1-10.7v-13.8h26.5zm-277.4 1.8a34.4 34.4 0 0126.8 25.4c3.6 13.1-1.8 24.3-11.3 33.4a77 77 0 01-16 12l17.2 52.7c-7 1-13.4.4-20.2.5l-15.6-47.2c-5.3-.5-10.2 1.7-15.5.5-2.4 8-3.4 15.7-5.5 23.1-2.1 7.5-.6 15.1-1.6 23.2h-21.7l.7-4 3-15.7 16.5-82.7c1-4.7.5-9.3.7-14v-.8c0-2.6-.6-5.3.8-8.4 13.8.5 28-1.2 41.7 2zm151.2-3.2l17.7 127h-18.3c-2-8.6-2.2-17.7-4-27h-40.2l-14.3 27.3h-18.3c-.7-2.4 1-4 2-5.7 15.5-29.6 31.1-59 46.8-88.5l7.9-14.8c2.4-4.6 4-9 2.7-14.1l-.2-.8c-.3-1-.4-2 .5-3.2 5.6-.7 11.4-.2 17.7-.2zm-12.8 43l-1.4-.4-21.7 40.9h28.5l-5.4-40.5zm-162-25l-8.6 46.9c3.9.8 7.2.7 10.3 0l.9-.1c11.2-2.4 21-7 26-18.4 3.7-7.9 2.3-15-3.5-21.5-6.8-7.7-15.3-8.2-25-7zm293.5.1l-8.7 46.9c12 1.4 21.5-2.1 30-8.8 4.2-3.2 6.9-7.6 8.4-12.6 1.9-6 .8-11.6-3-16.7-6.7-9.1-16-10.8-26.7-8.8zm-78-521.3c5 3.4 9.7 7.2 14.4 11 4.9 4 9.7 4.3 15 1.3l.2-.2a79.7 79.7 0 0127.5-10.5 77.4 77.4 0 0181 40.8 137 137 0 0113.9 42c5.5 32.3 8.1 64.8 8.2 97.5v71.8h.4v99.7c0 11.8-.8 23.6-4.2 35-8.8 29.4-26.9 49.8-57 58.3a57 57 0 01-15 2.2c-39.8.1-79.5 0-119.2.2-7 0-12.2-2.5-15.6-8.5-2-3.5-3.9-7-5.6-10.7l-.9-2c-2.7-5.9-4.3-6.5-11-6.2h-.6c-13.8.8-27.6 1.2-41.5 1.2-8.1 0-16.3-.9-24.4-1.5-5.2-.4-8.1 2.6-10.2 6.7-1.8 3.5-3.3 7.3-5 10.8-1 2-2 3.7-3.3 5.4-2.1 2.9-5 4.4-8.7 4.4h-98c-7.5-.1-13.6-3.5-18.3-9.2a43.4 43.4 0 01-9.5-28l.1-61.6v-5.1c.7-7-1.4-12.1-7.8-15.8l-.3-.2c-6.9-3.8-9.8-10.7-9.8-18.2 0-28.3-.9-56.6 1.5-84.9 2-22.8 6-45.1 14.4-66.5 14.1-36.7 37.5-65.3 73.1-83 13-6.5 26.8-11 40.6-15 6.5-2 11.1-5.5 14.2-11.3 1.7-3.2 3.5-6.3 5-9.6a84 84 0 0121.1-27.3 118 118 0 0154.3-28.7c29-6 56.2-1 81 15.7zm-72.4 13.2a77 77 0 00-31.9 16c-14.6 12-25.5 27-33.5 44a161 161 0 00-15.2 80.2c1.8 27.4 9.5 52.7 24.7 75.5 19.9 29.8 48.8 44.6 84 46.2 25.5 1.2 49.3-6.3 71.3-19l1.8-1.1c1.8-1 3.6-2 6-.9l6 8 1 1.4a52 52 0 0040.6 22.1c7 .6 14.2.1 21.4.1h1.4c1.7 0 3.9-.8 5.4 1.9-1.1 1.4-2.3 3-3.7 4.5a73 73 0 01-26.8 16.8 53.2 53.2 0 01-30.8 2.4 75.8 75.8 0 01-43.4-27.6c-1.3-1.5-2.5-3.3-3.4-4.6-1-.1-1.4-.3-1.7-.2l-4 .8a141.8 141.8 0 01-53.7 2.7 112 112 0 01-83.8-54.9c-19.5-33-25.9-69-20.4-107 1.2-7.8 3.1-15.5 4.7-23.3l.4-1.8c.4-2 1.5-4.1-1.3-5.7a150.5 150.5 0 00-47.2 18.5 119.6 119.6 0 00-47.4 51.8 218.2 218.2 0 00-19.2 81c-1 19.7-.8 39.5-1.1 59.3l.3 6.5h18.5v109.9h87.2v-39.2c42.6 20.8 88.4 17.8 130.9.2v39h78.9l-.1-27.9c-.1-41.5 0-64 .4-67.4 7 1 13 2.8 19.2 2.5 6.2-.2 12.3-2.5 18.7-4 .2 1.4.4 2.5.4 3.6V589c0 3.8.2 7.6 0 11.4-.4 7.7-4.2 11.4-11.8 11.5h-5.9v37.8c5.2 0 10.6.4 16 0a51.8 51.8 0 0049.6-55.5c0-42.1.1-84.3-.1-126.5-.1-8.9-.6-18-2.7-26.5a136.5 136.5 0 00-26.6-55.6c-4.6-5.5-9-11.2-14-16.5a91 91 0 00-39.9-26.5l-1.7-.5-10.3-2.9c-.7-1.9-1.5-3.4-2-5a153 153 0 00-16-36.4 112.4 112.4 0 00-45.2-44.7 62.5 62.5 0 00-44-6.9zm150.2 208.5c0 8.7-7.2 15.9-16 16-8.8.1-16.2-7.3-16.1-16.4 0-8.9 7-15.7 15.9-15.8 9.1 0 16.2 7 16.2 16.2zm-19.7-188.4c-16.8 2.9-24.8 16-33.2 29.2l9.3 21.6 5.3 12.2c1 2.4 3 3.6 5.4 4.1l.3.1a81.5 81.5 0 0135.4 18.7c19 15.8 33.2 35.3 44 57.4l.4 1 2.3 4.3c2.7-3.1 2.7-6.1 2.6-9v-.3l-1-31.8c-.8-21.4-5-42.2-12.6-62.2a84.3 84.3 0 00-20.7-33 43 43 0 00-37.5-12.3z" fill="#000" fill-rule="evenodd"/></svg>